<svg xmlns="http://www.w3.org/2000/svg" xmlns:xlink="http://www.w3.org/1999/xlink" width="70" zoomAndPan="magnify" viewBox="0 0 3374.88 1499.999933" height="157.5" preserveAspectRatio="xMidYMid meet" version="1.0"><defs><g/><clipPath id="id1"><path d="M 0 0.0273438 L 3374.761719 0.0273438 L 3374.761719 1499.972656 L 0 1499.972656 Z M 0 0.0273438 " clip-rule="nonzero"/></clipPath></defs><g clip-path="url(#id1)"><path fill="rgb(100%, 100%, 100%)" d="M 0 0.0273438 L 3374.878906 0.0273438 L 3374.878906 1507.472656 L 0 1507.472656 Z M 0 0.0273438 " fill-opacity="1" fill-rule="nonzero"/><path fill="rgb(100%, 100%, 100%)" d="M 0 0.0273438 L 3374.878906 0.0273438 L 3374.878906 1499.972656 L 0 1499.972656 Z M 0 0.0273438 " fill-opacity="1" fill-rule="nonzero"/><path fill="rgb(100%, 100%, 100%)" d="M 0 0.0273438 L 3374.878906 0.0273438 L 3374.878906 1499.972656 L 0 1499.972656 Z M 0 0.0273438 " fill-opacity="1" fill-rule="nonzero"/></g><g fill="rgb(0%, 0%, 0%)" fill-opacity="1"><g transform="translate(33.237393, 801.947775)"><g><path d="M 212.144531 -130.441406 L 212.144531 -195.421875 L 100.339844 -195.421875 L 100.339844 -259.925781 L 216.921875 -259.925781 L 216.921875 -324.90625 L 28.667969 -324.90625 L 28.667969 0 L 100.339844 0 L 100.339844 -130.441406 Z M 212.144531 -130.441406 "/></g></g></g><g fill="rgb(0%, 0%, 0%)" fill-opacity="1"><g transform="translate(369.611762, 801.947775)"><g><path d="M 100.339844 -116.105469 L 100.816406 -116.105469 L 178.222656 0 L 269.003906 0 L 175.832031 -119.453125 C 216.921875 -129.484375 249.890625 -165.796875 249.890625 -220.746094 C 249.890625 -282.382812 203.066406 -324.90625 150.507812 -324.90625 L 28.667969 -324.90625 L 28.667969 0 L 100.339844 0 Z M 138.5625 -268.527344 C 159.585938 -268.527344 181.566406 -250.371094 181.566406 -220.746094 C 181.566406 -189.6875 159.585938 -172.488281 138.5625 -172.488281 L 100.339844 -172.488281 L 100.339844 -268.527344 Z M 138.5625 -268.527344 "/></g></g></g><g fill="rgb(0%, 0%, 0%)" fill-opacity="1"><g transform="translate(728.442939, 801.947775)"><g><path d="M 216.921875 -64.980469 L 100.339844 -64.980469 L 100.339844 -130.441406 L 212.144531 -130.441406 L 212.144531 -195.421875 L 100.339844 -195.421875 L 100.339844 -259.925781 L 216.921875 -259.925781 L 216.921875 -324.90625 L 28.667969 -324.90625 L 28.667969 0 L 216.921875 0 Z M 216.921875 -64.980469 "/></g></g></g><g fill="rgb(0%, 0%, 0%)" fill-opacity="1"><g transform="translate(1069.595325, 801.947775)"><g><path d="M 216.921875 -64.980469 L 100.339844 -64.980469 L 100.339844 -130.441406 L 212.144531 -130.441406 L 212.144531 -195.421875 L 100.339844 -195.421875 L 100.339844 -259.925781 L 216.921875 -259.925781 L 216.921875 -324.90625 L 28.667969 -324.90625 L 28.667969 0 L 216.921875 0 Z M 216.921875 -64.980469 "/></g></g></g><g fill="rgb(0%, 0%, 0%)" fill-opacity="1"><g transform="translate(1410.747627, 801.947775)"><g/></g></g><g fill="rgb(0%, 0%, 0%)" fill-opacity="1"><g transform="translate(1625.759806, 801.947775)"><g><path d="M 154.808594 -50.648438 C 119.453125 -50.648438 88.871094 -68.324219 86.960938 -107.027344 L 14.335938 -107.027344 C 14.8125 -27.710938 80.269531 7.644531 151.941406 7.644531 C 218.355469 7.644531 286.683594 -20.546875 286.683594 -96.996094 C 286.683594 -220.746094 98.90625 -179.175781 98.90625 -236.992188 C 98.90625 -261.359375 127.097656 -270.914062 147.164062 -270.914062 C 183 -270.914062 202.589844 -259.925781 206.410156 -226 L 275.695312 -226 C 273.304688 -300.0625 213.101562 -329.683594 146.207031 -329.683594 C 86.960938 -329.683594 24.847656 -298.148438 24.847656 -231.257812 C 24.847656 -111.328125 212.625 -151.941406 212.625 -88.871094 C 212.625 -59.726562 177.265625 -50.648438 154.808594 -50.648438 Z M 154.808594 -50.648438 "/></g></g></g><g fill="rgb(0%, 0%, 0%)" fill-opacity="1"><g transform="translate(2022.337564, 801.947775)"><g><path d="M 205.457031 -124.230469 L 123.273438 -124.230469 L 164.363281 -239.859375 Z M 326.820312 0 L 194.945312 -324.90625 L 134.261719 -324.90625 L 2.390625 0 L 79.316406 0 L 102.726562 -65.460938 L 226.480469 -65.460938 L 249.890625 0 Z M 326.820312 0 "/></g></g></g><g fill="rgb(0%, 0%, 0%)" fill-opacity="1"><g transform="translate(2447.105798, 801.947775)"><g><path d="M 100.339844 0 L 100.339844 -324.90625 L 28.667969 -324.90625 L 28.667969 0 Z M 100.339844 0 "/></g></g></g><g fill="rgb(0%, 0%, 0%)" fill-opacity="1"><g transform="translate(2671.67401, 801.947775)"><g><path d="M 283.816406 0 L 283.816406 -324.90625 L 212.144531 -324.90625 L 212.144531 -122.316406 L 100.339844 -324.90625 L 28.667969 -324.90625 L 28.667969 0 L 100.339844 0 L 100.339844 -202.589844 L 212.144531 0 Z M 283.816406 0 "/></g></g></g><g fill="rgb(0%, 0%, 0%)" fill-opacity="1"><g transform="translate(3079.718942, 801.947775)"><g><path d="M 166.753906 -259.925781 L 259.449219 -259.925781 L 259.449219 -324.90625 L 2.390625 -324.90625 L 2.390625 -259.925781 L 95.082031 -259.925781 L 95.082031 0 L 166.753906 0 Z M 166.753906 -259.925781 "/></g></g></g><g fill="rgb(0%, 0%, 0%)" fill-opacity="1"><g transform="translate(1713.908581, 1280.962235)"><g/></g></g></svg>